<svg xmlns="http://www.w3.org/2000/svg" xmlns:xlink="http://www.w3.org/1999/xlink" width="200" zoomAndPan="magnify" viewBox="0 0 150 37.5" height="50" preserveAspectRatio="xMidYMid meet" version="1.0"><defs><g/><clipPath id="54804fa776"><path d="M 4.6875 4.648438 L 23 4.648438 L 23 32.03125 L 4.6875 32.03125 Z M 4.6875 4.648438 " clip-rule="nonzero"/></clipPath><clipPath id="8b20267ebd"><path d="M 4.6875 4.648438 L 23 4.648438 L 23 26 L 4.6875 26 Z M 4.6875 4.648438 " clip-rule="nonzero"/></clipPath><clipPath id="7dbc5cf995"><path d="M 28 4.648438 L 34.292969 4.648438 L 34.292969 11 L 28 11 Z M 28 4.648438 " clip-rule="nonzero"/></clipPath><clipPath id="021991c0f6"><path d="M 16 5 L 34.292969 5 L 34.292969 32 L 16 32 Z M 16 5 " clip-rule="nonzero"/></clipPath><clipPath id="87db741ba8"><path d="M 16 5 L 34.292969 5 L 34.292969 26 L 16 26 Z M 16 5 " clip-rule="nonzero"/></clipPath></defs><g clip-path="url(#54804fa776)"><path fill="#ff914d" d="M 11.710938 6.023438 L 21.199219 15.511719 C 21.390625 15.703125 21.5625 15.910156 21.710938 16.136719 C 21.863281 16.359375 21.988281 16.597656 22.09375 16.847656 C 22.195312 17.097656 22.273438 17.351562 22.324219 17.617188 C 22.378906 17.882812 22.40625 18.152344 22.40625 18.421875 C 22.40625 18.691406 22.378906 18.957031 22.324219 19.222656 C 22.273438 19.488281 22.195312 19.746094 22.09375 19.996094 C 21.988281 20.246094 21.863281 20.480469 21.710938 20.707031 C 21.5625 20.929688 21.390625 21.140625 21.199219 21.328125 L 11.710938 30.820312 C 9.117188 33.410156 4.683594 31.574219 4.6875 27.90625 L 4.6875 8.925781 C 4.683594 5.265625 9.117188 3.429688 11.710938 6.023438 Z M 11.710938 6.023438 " fill-opacity="1" fill-rule="nonzero"/></g><g clip-path="url(#8b20267ebd)"><path fill="#ff914d" d="M 11.710938 6.023438 C 9.132812 3.445312 4.75 5.246094 4.691406 8.867188 C 4.691406 8.867188 19.621094 22.996094 17.246094 25.300781 L 21.207031 21.339844 C 21.398438 21.148438 21.570312 20.941406 21.71875 20.714844 C 21.871094 20.492188 21.996094 20.253906 22.101562 20.003906 C 22.203125 19.753906 22.28125 19.496094 22.335938 19.230469 C 22.386719 18.96875 22.414062 18.699219 22.414062 18.429688 C 22.414062 18.160156 22.386719 17.890625 22.335938 17.625 C 22.28125 17.363281 22.203125 17.105469 22.101562 16.855469 C 21.996094 16.605469 21.871094 16.367188 21.71875 16.144531 C 21.570312 15.917969 21.398438 15.710938 21.207031 15.519531 Z M 11.710938 6.023438 " fill-opacity="1" fill-rule="nonzero"/></g><g clip-path="url(#7dbc5cf995)"><path fill="#ffde59" d="M 34.210938 7.367188 C 34.210938 7.722656 34.144531 8.066406 34.007812 8.394531 C 33.871094 8.726562 33.675781 9.015625 33.425781 9.269531 C 33.171875 9.519531 32.882812 9.714844 32.550781 9.851562 C 32.222656 9.988281 31.878906 10.054688 31.523438 10.054688 C 31.167969 10.054688 30.824219 9.988281 30.492188 9.851562 C 30.164062 9.714844 29.875 9.519531 29.621094 9.269531 C 29.371094 9.015625 29.175781 8.726562 29.039062 8.394531 C 28.902344 8.066406 28.835938 7.722656 28.835938 7.367188 C 28.835938 7.011719 28.902344 6.667969 29.039062 6.339844 C 29.175781 6.007812 29.371094 5.71875 29.621094 5.464844 C 29.875 5.214844 30.164062 5.019531 30.492188 4.882812 C 30.824219 4.746094 31.167969 4.679688 31.523438 4.679688 C 31.878906 4.679688 32.222656 4.746094 32.550781 4.882812 C 32.882812 5.019531 33.171875 5.214844 33.425781 5.464844 C 33.675781 5.71875 33.871094 6.007812 34.007812 6.339844 C 34.144531 6.667969 34.210938 7.011719 34.210938 7.367188 Z M 34.210938 7.367188 " fill-opacity="1" fill-rule="nonzero"/><path fill="#ffde59" d="M 34.210938 7.367188 C 34.210938 7.722656 34.144531 8.066406 34.007812 8.394531 C 33.871094 8.726562 33.675781 9.015625 33.425781 9.269531 C 33.171875 9.519531 32.882812 9.714844 32.550781 9.851562 C 32.222656 9.988281 31.878906 10.054688 31.523438 10.054688 C 31.167969 10.054688 30.824219 9.988281 30.492188 9.851562 C 30.164062 9.714844 29.875 9.519531 29.621094 9.269531 C 29.371094 9.015625 29.175781 8.726562 29.039062 8.394531 C 28.902344 8.066406 28.835938 7.722656 28.835938 7.367188 C 28.835938 7.011719 28.902344 6.667969 29.039062 6.339844 C 29.175781 6.007812 29.371094 5.71875 29.621094 5.464844 C 29.875 5.214844 30.164062 5.019531 30.492188 4.882812 C 30.824219 4.746094 31.167969 4.679688 31.523438 4.679688 C 31.878906 4.679688 32.222656 4.746094 32.550781 4.882812 C 32.882812 5.019531 33.171875 5.214844 33.425781 5.464844 C 33.675781 5.71875 33.871094 6.007812 34.007812 6.339844 C 34.144531 6.667969 34.210938 7.011719 34.210938 7.367188 Z M 34.210938 7.367188 " fill-opacity="1" fill-rule="nonzero"/></g><g clip-path="url(#021991c0f6)"><path fill="#ffbd59" d="M 33.003906 15.535156 L 23.515625 6.042969 C 20.96875 3.496094 14.175781 6.453125 16.5 8.777344 L 23.324219 15.601562 C 23.515625 15.792969 23.6875 16 23.835938 16.226562 C 23.988281 16.449219 24.113281 16.6875 24.21875 16.9375 C 24.320312 17.1875 24.398438 17.441406 24.453125 17.707031 C 24.503906 17.972656 24.53125 18.242188 24.53125 18.511719 C 24.53125 18.78125 24.503906 19.046875 24.453125 19.3125 C 24.398438 19.578125 24.320312 19.835938 24.21875 20.085938 C 24.113281 20.335938 23.988281 20.570312 23.835938 20.796875 C 23.6875 21.019531 23.515625 21.226562 23.324219 21.417969 L 16.503906 28.242188 C 14.425781 30.316406 20.992188 33.382812 23.515625 30.859375 L 33.003906 21.371094 C 33.199219 21.179688 33.371094 20.972656 33.519531 20.746094 C 33.671875 20.519531 33.800781 20.28125 33.902344 20.03125 C 34.007812 19.78125 34.085938 19.523438 34.140625 19.257812 C 34.191406 18.992188 34.21875 18.722656 34.21875 18.453125 C 34.21875 18.179688 34.191406 17.914062 34.140625 17.648438 C 34.085938 17.382812 34.007812 17.121094 33.902344 16.871094 C 33.800781 16.621094 33.671875 16.382812 33.519531 16.160156 C 33.371094 15.933594 33.199219 15.726562 33.003906 15.535156 Z M 33.003906 15.535156 " fill-opacity="1" fill-rule="nonzero"/></g><g clip-path="url(#87db741ba8)"><path fill="#ffbd59" d="M 33.003906 15.535156 L 23.515625 6.042969 C 20.96875 3.496094 14.175781 6.453125 16.5 8.777344 L 23.324219 15.601562 C 24.003906 16.28125 24.398438 17.09375 24.503906 18.046875 C 26.855469 20.808594 28.808594 23.488281 29.214844 25.160156 L 33.011719 21.363281 C 33.203125 21.171875 33.375 20.964844 33.523438 20.738281 C 33.675781 20.515625 33.800781 20.277344 33.90625 20.027344 C 34.007812 19.777344 34.085938 19.519531 34.140625 19.253906 C 34.191406 18.988281 34.21875 18.71875 34.21875 18.449219 C 34.21875 18.175781 34.191406 17.910156 34.136719 17.644531 C 34.085938 17.378906 34.007812 17.121094 33.902344 16.871094 C 33.796875 16.621094 33.671875 16.382812 33.519531 16.160156 C 33.367188 15.933594 33.199219 15.726562 33.003906 15.535156 Z M 33.003906 15.535156 " fill-opacity="1" fill-rule="nonzero"/></g><g fill="#808080" fill-opacity="1"><g transform="translate(40.161047, 24.421263)"><g><path d="M 3.0625 0 L 0.46875 0 L 0.46875 -2.671875 L 3.078125 -2.671875 C 3.660156 -2.671875 4.175781 -2.796875 4.625 -3.046875 C 5.070312 -3.296875 5.414062 -3.648438 5.65625 -4.109375 C 5.90625 -4.566406 6.03125 -5.109375 6.03125 -5.734375 L 6.03125 -16.328125 L 8.984375 -16.328125 L 8.984375 -5.5625 C 8.984375 -4.675781 8.832031 -3.890625 8.53125 -3.203125 C 8.238281 -2.515625 7.828125 -1.929688 7.296875 -1.453125 C 6.765625 -0.984375 6.140625 -0.625 5.421875 -0.375 C 4.703125 -0.125 3.914062 0 3.0625 0 Z M 3.0625 0 "/></g></g></g><g fill="#808080" fill-opacity="1"><g transform="translate(50.794029, 24.421263)"><g><path d="M 13.234375 0 L 1.9375 0 L 1.9375 -16.328125 L 13.125 -16.328125 L 13.125 -13.640625 L 4.9375 -13.640625 L 4.9375 -9.546875 L 12.015625 -9.546875 L 12.015625 -7.03125 L 4.9375 -7.03125 L 4.9375 -2.671875 L 13.234375 -2.671875 Z M 13.234375 0 "/></g></g></g><g fill="#808080" fill-opacity="1"><g transform="translate(64.811324, 24.421263)"><g><path d="M 4.9375 0 L 1.9375 0 L 1.9375 -16.328125 L 4.515625 -16.328125 L 13.40625 -4.890625 L 13.40625 -16.328125 L 16.375 -16.328125 L 16.375 0 L 13.828125 0 L 4.9375 -11.40625 Z M 4.9375 0 "/></g></g></g><g fill="#808080" fill-opacity="1"><g transform="translate(83.137016, 24.421263)"><g><path d="M 4.9375 0 L 1.9375 0 L 1.9375 -16.328125 L 4.515625 -16.328125 L 13.40625 -4.890625 L 13.40625 -16.328125 L 16.375 -16.328125 L 16.375 0 L 13.828125 0 L 4.9375 -11.40625 Z M 4.9375 0 "/></g></g></g><g fill="#808080" fill-opacity="1"><g transform="translate(101.462709, 24.421263)"><g><path d="M 9.59375 0 L 6.59375 0 L 6.59375 -6.203125 L 0.1875 -16.328125 L 3.65625 -16.328125 L 8.09375 -8.875 L 8.109375 -8.875 L 12.515625 -16.328125 L 16.03125 -16.328125 L 9.59375 -6.234375 Z M 9.59375 0 "/></g></g></g></svg>